<svg width="486" height="486" viewBox="0 0 486 486" fill="none" xmlns="http://www.w3.org/2000/svg">
<g clip-path="url(#clip0_4705_108)">
<path d="M486 243C486.085 300.361 465.795 355.888 428.748 399.68C427.402 401.278 426.032 402.85 424.636 404.414C408.211 422.887 389.077 438.761 367.889 451.492C363.029 454.41 358.062 457.16 352.989 459.741C352.476 460.002 351.955 460.262 351.442 460.514C350.828 460.826 350.206 461.128 349.584 461.431C336.746 467.714 323.375 472.841 309.627 476.751C308.198 477.154 306.766 477.547 305.331 477.928C287.247 482.713 268.67 485.39 249.97 485.908C248.995 485.933 248.037 485.95 247.112 485.966C246.784 485.975 246.464 485.983 246.145 485.983C245.094 485.992 244.051 486 243 486C223.294 486.015 203.66 483.634 184.529 478.912C182.612 478.441 180.703 477.945 178.803 477.424C168.793 474.691 158.971 471.312 149.399 467.308C144.354 465.206 139.398 462.939 134.533 460.506C133.431 459.951 132.33 459.396 131.245 458.824C130.783 458.597 130.329 458.354 129.875 458.118C103.942 444.431 80.6863 426.185 61.2208 404.255C59.8755 402.749 58.5554 401.219 57.2521 399.68C35.8048 374.251 19.8065 344.69 10.2481 312.827C0.689662 280.964 -2.22537 247.478 1.68354 214.442C5.59246 181.407 16.2421 149.526 32.9728 120.773C49.7036 92.0209 72.1592 67.0096 98.9489 47.2883C100.328 46.2709 101.715 45.2619 103.119 44.2781C103.397 44.0847 103.674 43.8914 103.952 43.698C128.625 26.4155 156.317 13.9096 185.596 6.82754C187.261 6.41554 188.926 6.02876 190.608 5.66721C222.322 -1.2699 255.097 -1.84436 287.034 3.97713C288.708 4.28824 290.381 4.60776 292.046 4.9525C321.063 10.9043 348.738 22.1426 373.69 38.1064C374.245 38.4596 374.8 38.8127 375.355 39.1827C376.473 39.9058 377.592 40.6457 378.693 41.3941C411.747 63.6158 438.825 93.6296 457.538 128.788C476.252 163.947 486.027 203.171 486 243Z" fill="white"/>
<path d="M181.619 368.713L103.952 375.607L103.119 375.683V44.2781C103.397 44.0847 103.674 43.8914 103.952 43.698C120.139 32.3759 137.648 23.0746 156.092 16.001L160.06 70.7391L160.422 75.7504L164.349 130.034L165.56 146.733L181.476 366.779L181.619 368.713Z" fill="#CCCCCC"/>
<path d="M373.69 38.1064C374.245 38.4596 374.8 38.8127 375.355 39.1827V375.683L373.69 375.532L296.864 368.713L297.007 366.779L312.923 146.733L314.134 130.034L318.061 75.7504L318.423 70.7391L322.585 13.3356C340.533 19.5572 357.687 27.8714 373.69 38.1064Z" fill="#CCCCCC"/>
<path d="M373.69 38.1064V380.274C373.69 386.841 369.167 392.18 363.6 392.18H114.042C109.434 392.18 105.524 388.514 104.339 383.511C104.08 382.452 103.95 381.365 103.952 380.274V43.698C103.674 43.8914 103.397 44.0848 103.119 44.2781C101.715 45.2619 100.328 46.2709 98.9489 47.2883V380.274C98.8744 385.262 100.737 390.084 104.145 393.727C105.932 395.6 108.193 396.954 110.687 397.646C111.78 397.943 112.909 398.093 114.042 398.091H363.6C364.736 398.092 365.867 397.942 366.964 397.646C373.673 395.838 378.693 388.741 378.693 380.274V41.3941C377.592 40.6457 376.473 39.9058 375.355 39.1827C374.8 38.8127 374.245 38.4596 373.69 38.1064Z" fill="#CCCCCC"/>
<path d="M376.194 70.7424H101.451V75.7529H376.194V70.7424Z" fill="#CCCCCC"/>
<path d="M185.596 6.82754C187.261 6.41554 188.926 6.02876 190.608 5.66721V141.722H185.596V6.82754Z" fill="#CCCCCC"/>
<path d="M287.034 3.97713C288.708 4.28823 290.381 4.60775 292.046 4.95249V141.722H287.034V3.97713Z" fill="#CCCCCC"/>
<path d="M407.509 366.779H78.4831C72.5022 366.779 66.7663 369.155 62.5371 373.384C58.308 377.613 55.932 383.349 55.932 389.33C55.932 395.311 58.308 401.047 62.5371 405.276C66.7663 409.505 72.5022 411.881 78.4831 411.881H407.509C410.711 411.881 413.877 411.199 416.794 409.878C419.712 408.557 422.314 406.628 424.426 404.221C425.382 403.133 426.233 401.956 426.965 400.706C427.533 399.748 428.025 398.747 428.437 397.713C429.81 394.292 430.324 390.586 429.932 386.92C429.54 383.254 428.255 379.741 426.189 376.687C424.123 373.634 421.34 371.133 418.083 369.406C414.826 367.679 411.195 366.776 407.509 366.779Z" fill="#CCCCCC"/>
<path d="M376.194 130.034H103.121V146.735H376.194V130.034Z" fill="#CCCCCC"/>
<path d="M237.152 125.023H242.162C243.369 125.023 244.563 125.261 245.678 125.722C246.792 126.184 247.805 126.861 248.658 127.713C249.511 128.566 250.188 129.579 250.649 130.694C251.111 131.808 251.348 133.003 251.348 134.209H227.966C227.966 131.773 228.934 129.436 230.656 127.713C232.379 125.991 234.716 125.023 237.152 125.023Z" fill="#CCCCCC"/>
<path d="M428.748 399.68C421.443 408.335 413.543 416.469 405.104 424.022H80.8963C72.4573 416.469 64.5567 408.335 57.2521 399.68H428.748Z" fill="#3F3D56"/>
<path d="M270.142 315.37H215.555C215.261 315.367 214.969 315.413 214.689 315.505C214.097 315.688 213.578 316.056 213.211 316.556C212.843 317.055 212.645 317.659 212.646 318.28V404.515H273.06V318.28C273.059 317.897 272.984 317.518 272.837 317.165C272.69 316.811 272.475 316.49 272.204 316.22C271.933 315.95 271.611 315.736 271.257 315.59C270.904 315.444 270.525 315.37 270.142 315.37ZM249.483 357.916C249.485 359.315 249.024 360.675 248.171 361.784C247.358 362.86 246.227 363.654 244.938 364.054C243.65 364.454 242.268 364.439 240.989 364.012C239.709 363.584 238.596 362.766 237.805 361.673C237.015 360.579 236.588 359.265 236.584 357.916V347.91C236.6 346.21 237.287 344.585 238.494 343.389C239.702 342.192 241.333 341.521 243.034 341.521C244.734 341.521 246.365 342.192 247.573 343.389C248.781 344.585 249.467 346.21 249.483 347.91V357.916Z" fill="#2F2E41"/>
<path d="M212.461 401.757V410.073C212.461 410.504 212.632 410.918 212.936 411.224C213.24 411.529 213.653 411.702 214.084 411.704H271.622C272.053 411.701 272.465 411.527 272.768 411.222C273.072 410.917 273.243 410.504 273.245 410.073V401.757H212.461Z" fill="#3F3D56"/>
<path d="M360.531 180.795H127.201C125.196 180.798 123.274 181.595 121.856 183.012C120.437 184.428 119.638 186.35 119.633 188.354V345.808C119.635 347.815 120.433 349.739 121.852 351.158C123.27 352.576 125.194 353.374 127.201 353.376H360.531C362.538 353.374 364.462 352.576 365.881 351.158C367.299 349.739 368.097 347.815 368.099 345.808V188.354C368.094 186.35 367.295 184.428 365.877 183.012C364.458 181.595 362.536 180.798 360.531 180.795Z" fill="#3F3D56"/>
<path d="M358.581 186.261H129.143C128.07 186.263 127.041 186.691 126.283 187.451C125.525 188.211 125.099 189.24 125.099 190.314V343.866C125.101 344.938 125.527 345.966 126.285 346.724C127.043 347.482 128.071 347.909 129.143 347.91H358.581C359.653 347.909 360.68 347.482 361.438 346.724C362.196 345.966 362.623 344.938 362.625 343.866V190.314C362.625 189.24 362.199 188.211 361.441 187.451C360.683 186.691 359.654 186.263 358.581 186.261Z" fill="#89C5CC"/>
<path d="M316.354 411.57L314.235 401.505C314.147 401.095 313.958 400.713 313.685 400.394C313.412 400.075 313.063 399.83 312.671 399.68C312.387 399.569 312.085 399.512 311.78 399.512H179.509C179.204 399.512 178.902 399.569 178.618 399.68C178.225 399.83 177.877 400.075 177.604 400.394C177.331 400.713 177.141 401.095 177.054 401.505L174.935 411.57C174.858 411.935 174.864 412.313 174.952 412.676C175.04 413.039 175.207 413.377 175.442 413.667C175.678 413.957 175.974 414.191 176.311 414.352C176.648 414.513 177.017 414.596 177.39 414.597H313.89C314.265 414.599 314.635 414.516 314.973 414.354C315.311 414.192 315.608 413.956 315.841 413.663C316.077 413.374 316.245 413.037 316.334 412.674C316.423 412.312 316.429 411.935 316.354 411.57Z" fill="#2F2E41"/>
<path d="M184.272 401.325H180.889C180.662 401.325 180.478 401.509 180.478 401.735V403.437C180.478 403.664 180.662 403.847 180.889 403.847H184.272C184.499 403.847 184.683 403.664 184.683 403.437V401.735C184.683 401.509 184.499 401.325 184.272 401.325Z" fill="#3F3D56"/>
<path d="M192.68 401.325H189.297C189.07 401.325 188.887 401.509 188.887 401.735V403.437C188.887 403.664 189.07 403.847 189.297 403.847H192.68C192.907 403.847 193.091 403.664 193.091 403.437V401.735C193.091 401.509 192.907 401.325 192.68 401.325Z" fill="#3F3D56"/>
<path d="M201.089 401.325H197.705C197.479 401.325 197.295 401.509 197.295 401.735V403.437C197.295 403.664 197.479 403.847 197.705 403.847H201.089C201.315 403.847 201.499 403.664 201.499 403.437V401.735C201.499 401.509 201.315 401.325 201.089 401.325Z" fill="#3F3D56"/>
<path d="M209.497 401.325H206.114C205.887 401.325 205.703 401.509 205.703 401.735V403.437C205.703 403.664 205.887 403.847 206.114 403.847H209.497C209.724 403.847 209.907 403.664 209.907 403.437V401.735C209.907 401.509 209.724 401.325 209.497 401.325Z" fill="#3F3D56"/>
<path d="M217.905 401.325H214.522C214.295 401.325 214.112 401.509 214.112 401.735V403.437C214.112 403.664 214.295 403.847 214.522 403.847H217.905C218.132 403.847 218.316 403.664 218.316 403.437V401.735C218.316 401.509 218.132 401.325 217.905 401.325Z" fill="#3F3D56"/>
<path d="M226.314 401.325H222.93C222.704 401.325 222.52 401.509 222.52 401.735V403.437C222.52 403.664 222.704 403.847 222.93 403.847H226.314C226.54 403.847 226.724 403.664 226.724 403.437V401.735C226.724 401.509 226.54 401.325 226.314 401.325Z" fill="#3F3D56"/>
<path d="M234.722 401.325H231.339C231.112 401.325 230.928 401.509 230.928 401.735V403.437C230.928 403.664 231.112 403.847 231.339 403.847H234.722C234.949 403.847 235.132 403.664 235.132 403.437V401.735C235.132 401.509 234.949 401.325 234.722 401.325Z" fill="#3F3D56"/>
<path d="M243.13 401.325H239.747C239.52 401.325 239.337 401.509 239.337 401.735V403.437C239.337 403.664 239.52 403.847 239.747 403.847H243.13C243.357 403.847 243.541 403.664 243.541 403.437V401.735C243.541 401.509 243.357 401.325 243.13 401.325Z" fill="#3F3D56"/>
<path d="M251.538 401.325H248.155C247.929 401.325 247.745 401.509 247.745 401.735V403.437C247.745 403.664 247.929 403.847 248.155 403.847H251.538C251.765 403.847 251.949 403.664 251.949 403.437V401.735C251.949 401.509 251.765 401.325 251.538 401.325Z" fill="#3F3D56"/>
<path d="M259.947 401.325H256.564C256.337 401.325 256.153 401.509 256.153 401.735V403.437C256.153 403.664 256.337 403.847 256.564 403.847H259.947C260.174 403.847 260.357 403.664 260.357 403.437V401.735C260.357 401.509 260.174 401.325 259.947 401.325Z" fill="#3F3D56"/>
<path d="M268.355 401.325H264.972C264.745 401.325 264.561 401.509 264.561 401.735V403.437C264.561 403.664 264.745 403.847 264.972 403.847H268.355C268.582 403.847 268.766 403.664 268.766 403.437V401.735C268.766 401.509 268.582 401.325 268.355 401.325Z" fill="#3F3D56"/>
<path d="M276.763 401.325H273.38C273.154 401.325 272.97 401.509 272.97 401.735V403.437C272.97 403.664 273.154 403.847 273.38 403.847H276.763C276.99 403.847 277.174 403.664 277.174 403.437V401.735C277.174 401.509 276.99 401.325 276.763 401.325Z" fill="#3F3D56"/>
<path d="M285.172 401.325H281.789C281.562 401.325 281.378 401.509 281.378 401.735V403.437C281.378 403.664 281.562 403.847 281.789 403.847H285.172C285.398 403.847 285.582 403.664 285.582 403.437V401.735C285.582 401.509 285.398 401.325 285.172 401.325Z" fill="#3F3D56"/>
<path d="M293.58 401.325H290.197C289.97 401.325 289.786 401.509 289.786 401.735V403.437C289.786 403.664 289.97 403.847 290.197 403.847H293.58C293.807 403.847 293.99 403.664 293.99 403.437V401.735C293.99 401.509 293.807 401.325 293.58 401.325Z" fill="#3F3D56"/>
<path d="M301.988 401.325H298.605C298.378 401.325 298.195 401.509 298.195 401.735V403.437C298.195 403.664 298.378 403.847 298.605 403.847H301.988C302.215 403.847 302.399 403.664 302.399 403.437V401.735C302.399 401.509 302.215 401.325 301.988 401.325Z" fill="#3F3D56"/>
<path d="M310.397 401.325H307.013C306.787 401.325 306.603 401.509 306.603 401.735V403.437C306.603 403.664 306.787 403.847 307.013 403.847H310.397C310.623 403.847 310.807 403.664 310.807 403.437V401.735C310.807 401.509 310.623 401.325 310.397 401.325Z" fill="#3F3D56"/>
<path d="M184.173 405.529H180.789C180.563 405.529 180.379 405.713 180.379 405.939V407.641C180.379 407.868 180.563 408.051 180.789 408.051H184.173C184.399 408.051 184.583 407.868 184.583 407.641V405.939C184.583 405.713 184.399 405.529 184.173 405.529Z" fill="#3F3D56"/>
<path d="M192.581 405.529H189.198C188.971 405.529 188.787 405.713 188.787 405.939V407.641C188.787 407.868 188.971 408.051 189.198 408.051H192.581C192.808 408.051 192.991 407.868 192.991 407.641V405.939C192.991 405.713 192.808 405.529 192.581 405.529Z" fill="#3F3D56"/>
<path d="M200.989 405.529H197.606C197.379 405.529 197.196 405.713 197.196 405.939V407.641C197.196 407.868 197.379 408.051 197.606 408.051H200.989C201.216 408.051 201.4 407.868 201.4 407.641V405.939C201.4 405.713 201.216 405.529 200.989 405.529Z" fill="#3F3D56"/>
<path d="M209.398 405.529H206.014C205.788 405.529 205.604 405.713 205.604 405.939V407.641C205.604 407.868 205.788 408.051 206.014 408.051H209.398C209.624 408.051 209.808 407.868 209.808 407.641V405.939C209.808 405.713 209.624 405.529 209.398 405.529Z" fill="#3F3D56"/>
<path d="M217.806 405.529H214.423C214.196 405.529 214.012 405.713 214.012 405.939V407.641C214.012 407.868 214.196 408.051 214.423 408.051H217.806C218.033 408.051 218.216 407.868 218.216 407.641V405.939C218.216 405.713 218.033 405.529 217.806 405.529Z" fill="#3F3D56"/>
<path d="M226.214 405.529H222.831C222.604 405.529 222.421 405.713 222.421 405.939V407.641C222.421 407.868 222.604 408.051 222.831 408.051H226.214C226.441 408.051 226.625 407.868 226.625 407.641V405.939C226.625 405.713 226.441 405.529 226.214 405.529Z" fill="#3F3D56"/>
<path d="M234.623 405.529H231.239C231.013 405.529 230.829 405.713 230.829 405.939V407.641C230.829 407.868 231.013 408.051 231.239 408.051H234.623C234.849 408.051 235.033 407.868 235.033 407.641V405.939C235.033 405.713 234.849 405.529 234.623 405.529Z" fill="#3F3D56"/>
<path d="M243.031 405.529H239.648C239.421 405.529 239.237 405.713 239.237 405.939V407.641C239.237 407.868 239.421 408.051 239.648 408.051H243.031C243.258 408.051 243.441 407.868 243.441 407.641V405.939C243.441 405.713 243.258 405.529 243.031 405.529Z" fill="#3F3D56"/>
<path d="M251.439 405.529H248.056C247.829 405.529 247.645 405.713 247.645 405.939V407.641C247.645 407.868 247.829 408.051 248.056 408.051H251.439C251.666 408.051 251.85 407.868 251.85 407.641V405.939C251.85 405.713 251.666 405.529 251.439 405.529Z" fill="#3F3D56"/>
<path d="M259.847 405.529H256.464C256.238 405.529 256.054 405.713 256.054 405.939V407.641C256.054 407.868 256.238 408.051 256.464 408.051H259.847C260.074 408.051 260.258 407.868 260.258 407.641V405.939C260.258 405.713 260.074 405.529 259.847 405.529Z" fill="#3F3D56"/>
<path d="M268.256 405.529H264.873C264.646 405.529 264.462 405.713 264.462 405.939V407.641C264.462 407.868 264.646 408.051 264.873 408.051H268.256C268.482 408.051 268.666 407.868 268.666 407.641V405.939C268.666 405.713 268.482 405.529 268.256 405.529Z" fill="#3F3D56"/>
<path d="M276.664 405.529H273.281C273.054 405.529 272.87 405.713 272.87 405.939V407.641C272.87 407.868 273.054 408.051 273.281 408.051H276.664C276.891 408.051 277.075 407.868 277.075 407.641V405.939C277.075 405.713 276.891 405.529 276.664 405.529Z" fill="#3F3D56"/>
<path d="M285.072 405.529H281.689C281.462 405.529 281.279 405.713 281.279 405.939V407.641C281.279 407.868 281.462 408.051 281.689 408.051H285.072C285.299 408.051 285.483 407.868 285.483 407.641V405.939C285.483 405.713 285.299 405.529 285.072 405.529Z" fill="#3F3D56"/>
<path d="M293.481 405.529H290.097C289.871 405.529 289.687 405.713 289.687 405.939V407.641C289.687 407.868 289.871 408.051 290.097 408.051H293.481C293.707 408.051 293.891 407.868 293.891 407.641V405.939C293.891 405.713 293.707 405.529 293.481 405.529Z" fill="#3F3D56"/>
<path d="M301.889 405.529H298.506C298.279 405.529 298.095 405.713 298.095 405.939V407.641C298.095 407.868 298.279 408.051 298.506 408.051H301.889C302.116 408.051 302.299 407.868 302.299 407.641V405.939C302.299 405.713 302.116 405.529 301.889 405.529Z" fill="#3F3D56"/>
<path d="M310.297 405.529H306.914C306.687 405.529 306.504 405.713 306.504 405.939V407.641C306.504 407.868 306.687 408.051 306.914 408.051H310.297C310.524 408.051 310.708 407.868 310.708 407.641V405.939C310.708 405.713 310.524 405.529 310.297 405.529Z" fill="#3F3D56"/>
<path d="M253.962 410.574H221.149C220.923 410.574 220.739 410.758 220.739 410.984V412.686C220.739 412.913 220.923 413.096 221.149 413.096H253.962C254.188 413.096 254.372 412.913 254.372 412.686V410.984C254.372 410.758 254.188 410.574 253.962 410.574Z" fill="#3F3D56"/>
<path d="M347.051 207.413H132.368C132.144 207.408 131.932 207.316 131.776 207.157C131.62 206.997 131.532 206.783 131.532 206.56C131.532 206.336 131.62 206.122 131.776 205.962C131.932 205.803 132.144 205.711 132.368 205.706H347.051C347.274 205.711 347.487 205.803 347.643 205.962C347.799 206.122 347.886 206.336 347.886 206.56C347.886 206.783 347.799 206.997 347.643 207.157C347.487 207.316 347.274 207.408 347.051 207.413Z" fill="#3F3D56"/>
<path d="M146.981 201.347C149.745 201.347 151.985 199.057 151.985 196.232C151.985 193.407 149.745 191.117 146.981 191.117C144.218 191.117 141.978 193.407 141.978 196.232C141.978 199.057 144.218 201.347 146.981 201.347Z" fill="#3F3D56"/>
<path d="M164.265 201.347C167.029 201.347 169.269 199.057 169.269 196.232C169.269 193.407 167.029 191.117 164.265 191.117C161.502 191.117 159.262 193.407 159.262 196.232C159.262 199.057 161.502 201.347 164.265 201.347Z" fill="#3F3D56"/>
<path d="M181.55 201.347C184.313 201.347 186.553 199.057 186.553 196.232C186.553 193.407 184.313 191.117 181.55 191.117C178.786 191.117 176.546 193.407 176.546 196.232C176.546 199.057 178.786 201.347 181.55 201.347Z" fill="#3F3D56"/>
<path d="M336.643 192.382H324.367C324.125 192.388 323.894 192.488 323.724 192.662C323.554 192.835 323.459 193.068 323.459 193.311C323.459 193.554 323.554 193.787 323.724 193.961C323.894 194.134 324.125 194.235 324.367 194.24H336.643C336.887 194.237 337.12 194.137 337.292 193.964C337.463 193.79 337.559 193.555 337.559 193.311C337.559 193.067 337.463 192.833 337.292 192.659C337.12 192.485 336.887 192.385 336.643 192.382Z" fill="#3F3D56"/>
<path d="M336.643 195.871H324.367C324.124 195.877 323.893 195.977 323.723 196.151C323.553 196.324 323.458 196.558 323.458 196.801C323.458 197.043 323.553 197.277 323.723 197.45C323.893 197.624 324.124 197.724 324.367 197.73H336.643C336.888 197.727 337.121 197.628 337.293 197.454C337.465 197.28 337.561 197.045 337.561 196.801C337.561 196.556 337.465 196.321 337.293 196.148C337.121 195.974 336.888 195.874 336.643 195.871Z" fill="#3F3D56"/>
<path d="M336.643 199.361H324.367C324.125 199.367 323.894 199.467 323.724 199.641C323.554 199.814 323.459 200.047 323.459 200.29C323.459 200.533 323.554 200.766 323.724 200.939C323.894 201.113 324.125 201.213 324.367 201.219H336.643C336.887 201.216 337.12 201.116 337.292 200.942C337.463 200.769 337.559 200.534 337.559 200.29C337.559 200.046 337.463 199.811 337.292 199.638C337.12 199.464 336.887 199.364 336.643 199.361Z" fill="#3F3D56"/>
<path d="M150.879 227.254H146.468C145.13 227.254 144.046 228.338 144.046 229.676C144.046 231.013 145.13 232.097 146.468 232.097H150.879C152.216 232.097 153.3 231.013 153.3 229.676C153.3 228.338 152.216 227.254 150.879 227.254Z" fill="#E6E6E6"/>
<path d="M201.329 227.254H196.918C195.58 227.254 194.496 228.338 194.496 229.676C194.496 231.013 195.58 232.097 196.918 232.097H201.329C202.666 232.097 203.75 231.013 203.75 229.676C203.75 228.338 202.666 227.254 201.329 227.254Z" fill="#E6E6E6"/>
<path d="M215.623 227.254H211.212C209.874 227.254 208.79 228.338 208.79 229.676C208.79 231.013 209.874 232.097 211.212 232.097H215.623C216.96 232.097 218.044 231.013 218.044 229.676C218.044 228.338 216.96 227.254 215.623 227.254Z" fill="#E6E6E6"/>
<path d="M187.606 226.85H160.19C158.853 226.85 157.769 227.934 157.769 229.272C157.769 230.609 158.853 231.693 160.19 231.693H187.606C188.944 231.693 190.028 230.609 190.028 229.272C190.028 227.934 188.944 226.85 187.606 226.85Z" fill="#E6E6E6"/>
<path d="M254.873 226.85H227.457C226.119 226.85 225.035 227.934 225.035 229.272C225.035 230.609 226.119 231.693 227.457 231.693H254.873C256.21 231.693 257.294 230.609 257.294 229.272C257.294 227.934 256.21 226.85 254.873 226.85Z" fill="#E6E6E6"/>
<path d="M164.332 238.185H159.921C158.584 238.185 157.499 239.269 157.499 240.606C157.499 241.944 158.584 243.028 159.921 243.028H164.332C165.669 243.028 166.754 241.944 166.754 240.606C166.754 239.269 165.669 238.185 164.332 238.185Z" fill="#E6E6E6"/>
<path d="M214.782 238.185H210.371C209.033 238.185 207.949 239.269 207.949 240.606C207.949 241.944 209.033 243.028 210.371 243.028H214.782C216.119 243.028 217.203 241.944 217.203 240.606C217.203 239.269 216.119 238.185 214.782 238.185Z" fill="#E6E6E6"/>
<path d="M229.076 238.185H224.665C223.328 238.185 222.243 239.269 222.243 240.606C222.243 241.944 223.328 243.028 224.665 243.028H229.076C230.413 243.028 231.498 241.944 231.498 240.606C231.498 239.269 230.413 238.185 229.076 238.185Z" fill="#E6E6E6"/>
<path d="M201.059 237.781H173.643C172.306 237.781 171.222 238.865 171.222 240.203C171.222 241.54 172.306 242.624 173.643 242.624H201.059C202.397 242.624 203.481 241.54 203.481 240.203C203.481 238.865 202.397 237.781 201.059 237.781Z" fill="#E6E6E6"/>
<path d="M268.326 237.781H240.91C239.572 237.781 238.488 238.865 238.488 240.203C238.488 241.54 239.572 242.624 240.91 242.624H268.326C269.663 242.624 270.747 241.54 270.747 240.203C270.747 238.865 269.663 237.781 268.326 237.781Z" fill="#E6E6E6"/>
<path d="M177.785 249.116H173.374C172.037 249.116 170.953 250.2 170.953 251.537C170.953 252.875 172.037 253.959 173.374 253.959H177.785C179.123 253.959 180.207 252.875 180.207 251.537C180.207 250.2 179.123 249.116 177.785 249.116Z" fill="#E6E6E6"/>
<path d="M228.235 249.116H223.824C222.487 249.116 221.403 250.2 221.403 251.537C221.403 252.875 222.487 253.959 223.824 253.959H228.235C229.573 253.959 230.657 252.875 230.657 251.537C230.657 250.2 229.573 249.116 228.235 249.116Z" fill="#E6E6E6"/>
<path d="M242.529 249.116H238.118C236.781 249.116 235.697 250.2 235.697 251.537C235.697 252.875 236.781 253.959 238.118 253.959H242.529C243.867 253.959 244.951 252.875 244.951 251.537C244.951 250.2 243.867 249.116 242.529 249.116Z" fill="#E6E6E6"/>
<path d="M214.513 248.712H187.097C185.759 248.712 184.675 249.796 184.675 251.133C184.675 252.471 185.759 253.555 187.097 253.555H214.513C215.85 253.555 216.934 252.471 216.934 251.133C216.934 249.796 215.85 248.712 214.513 248.712Z" fill="#E6E6E6"/>
<path d="M281.779 248.712H254.363C253.026 248.712 251.942 249.796 251.942 251.133C251.942 252.471 253.026 253.555 254.363 253.555H281.779C283.117 253.555 284.201 252.471 284.201 251.133C284.201 249.796 283.117 248.712 281.779 248.712Z" fill="#E6E6E6"/>
<path d="M191.239 260.046H186.828C185.49 260.046 184.406 261.131 184.406 262.468C184.406 263.805 185.49 264.89 186.828 264.89H191.239C192.576 264.89 193.66 263.805 193.66 262.468C193.66 261.131 192.576 260.046 191.239 260.046Z" fill="#E6E6E6"/>
<path d="M241.689 260.046H237.277C235.94 260.046 234.856 261.131 234.856 262.468C234.856 263.805 235.94 264.89 237.277 264.89H241.689C243.026 264.89 244.11 263.805 244.11 262.468C244.11 261.131 243.026 260.046 241.689 260.046Z" fill="#E6E6E6"/>
<path d="M255.983 260.046H251.571C250.234 260.046 249.15 261.131 249.15 262.468C249.15 263.805 250.234 264.89 251.571 264.89H255.983C257.32 264.89 258.404 263.805 258.404 262.468C258.404 261.131 257.32 260.046 255.983 260.046Z" fill="#E6E6E6"/>
<path d="M227.966 259.643H200.55C199.213 259.643 198.128 260.727 198.128 262.064C198.128 263.402 199.213 264.486 200.55 264.486H227.966C229.303 264.486 230.388 263.402 230.388 262.064C230.388 260.727 229.303 259.643 227.966 259.643Z" fill="#E6E6E6"/>
<path d="M201.329 303.512H196.918C195.58 303.512 194.496 304.596 194.496 305.933C194.496 307.271 195.58 308.355 196.918 308.355H201.329C202.666 308.355 203.75 307.271 203.75 305.933C203.75 304.596 202.666 303.512 201.329 303.512Z" fill="#E6E6E6"/>
<path d="M215.623 303.512H211.212C209.874 303.512 208.79 304.596 208.79 305.933C208.79 307.271 209.874 308.355 211.212 308.355H215.623C216.96 308.355 218.044 307.271 218.044 305.933C218.044 304.596 216.96 303.512 215.623 303.512Z" fill="#E6E6E6"/>
<path d="M254.873 303.916H227.457C226.119 303.916 225.035 305 225.035 306.337C225.035 307.675 226.119 308.759 227.457 308.759H254.873C256.21 308.759 257.294 307.675 257.294 306.337C257.294 305 256.21 303.916 254.873 303.916Z" fill="#E6E6E6"/>
<path d="M150.879 303.512H146.468C145.13 303.512 144.046 304.596 144.046 305.933C144.046 307.271 145.13 308.355 146.468 308.355H150.879C152.216 308.355 153.3 307.271 153.3 305.933C153.3 304.596 152.216 303.512 150.879 303.512Z" fill="#E6E6E6"/>
<path d="M187.606 303.916H160.19C158.853 303.916 157.769 305 157.769 306.337C157.769 307.675 158.853 308.759 160.19 308.759H187.606C188.944 308.759 190.028 307.675 190.028 306.337C190.028 305 188.944 303.916 187.606 303.916Z" fill="#E6E6E6"/>
<path d="M164.332 292.581H159.921C158.584 292.581 157.499 293.665 157.499 295.003C157.499 296.34 158.584 297.424 159.921 297.424H164.332C165.669 297.424 166.754 296.34 166.754 295.003C166.754 293.665 165.669 292.581 164.332 292.581Z" fill="#E6E6E6"/>
<path d="M214.782 292.581H210.371C209.033 292.581 207.949 293.665 207.949 295.003C207.949 296.34 209.033 297.424 210.371 297.424H214.782C216.119 297.424 217.203 296.34 217.203 295.003C217.203 293.665 216.119 292.581 214.782 292.581Z" fill="#E6E6E6"/>
<path d="M229.076 292.581H224.665C223.328 292.581 222.243 293.665 222.243 295.003C222.243 296.34 223.328 297.424 224.665 297.424H229.076C230.413 297.424 231.498 296.34 231.498 295.003C231.498 293.665 230.413 292.581 229.076 292.581Z" fill="#E6E6E6"/>
<path d="M201.059 292.985H173.643C172.306 292.985 171.222 294.069 171.222 295.406C171.222 296.744 172.306 297.828 173.643 297.828H201.059C202.397 297.828 203.481 296.744 203.481 295.406C203.481 294.069 202.397 292.985 201.059 292.985Z" fill="#E6E6E6"/>
<path d="M177.785 281.65H173.374C172.037 281.65 170.953 282.734 170.953 284.072C170.953 285.409 172.037 286.493 173.374 286.493H177.785C179.123 286.493 180.207 285.409 180.207 284.072C180.207 282.734 179.123 281.65 177.785 281.65Z" fill="#E6E6E6"/>
<path d="M228.235 281.65H223.824C222.487 281.65 221.403 282.734 221.403 284.072C221.403 285.409 222.487 286.493 223.824 286.493H228.235C229.573 286.493 230.657 285.409 230.657 284.072C230.657 282.734 229.573 281.65 228.235 281.65Z" fill="#E6E6E6"/>
<path d="M242.529 281.65H238.118C236.781 281.65 235.697 282.734 235.697 284.072C235.697 285.409 236.781 286.493 238.118 286.493H242.529C243.867 286.493 244.951 285.409 244.951 284.072C244.951 282.734 243.867 281.65 242.529 281.65Z" fill="#E6E6E6"/>
<path d="M214.513 282.054H187.097C185.759 282.054 184.675 283.138 184.675 284.476C184.675 285.813 185.759 286.897 187.097 286.897H214.513C215.85 286.897 216.934 285.813 216.934 284.476C216.934 283.138 215.85 282.054 214.513 282.054Z" fill="#E6E6E6"/>
<path d="M191.239 270.719H186.828C185.49 270.719 184.406 271.804 184.406 273.141C184.406 274.478 185.49 275.563 186.828 275.563H191.239C192.576 275.563 193.66 274.478 193.66 273.141C193.66 271.804 192.576 270.719 191.239 270.719Z" fill="#E6E6E6"/>
<path d="M241.689 270.719H237.277C235.94 270.719 234.856 271.804 234.856 273.141C234.856 274.478 235.94 275.563 237.277 275.563H241.689C243.026 275.563 244.11 274.478 244.11 273.141C244.11 271.804 243.026 270.719 241.689 270.719Z" fill="#E6E6E6"/>
<path d="M255.983 270.719H251.571C250.234 270.719 249.15 271.804 249.15 273.141C249.15 274.478 250.234 275.563 251.571 275.563H255.983C257.32 275.563 258.404 274.478 258.404 273.141C258.404 271.804 257.32 270.719 255.983 270.719Z" fill="#E6E6E6"/>
<path d="M227.966 271.123H200.55C199.213 271.123 198.128 272.207 198.128 273.545C198.128 274.882 199.213 275.966 200.55 275.966H227.966C229.303 275.966 230.388 274.882 230.388 273.545C230.388 272.207 229.303 271.123 227.966 271.123Z" fill="#E6E6E6"/>
<path d="M349.626 461.423C349.113 461.683 348.591 461.944 348.079 462.196C334.793 468.839 324.165 472.614 309.627 476.751C308.4 463.045 307.214 438.956 306.062 424.022C305.76 420.146 305.457 416.892 305.163 414.597C305.088 413.376 304.839 412.173 304.423 411.023L304.473 414.597L304.599 424.022L305.331 477.928C287.247 482.713 268.67 485.39 249.97 485.908C248.995 485.933 248.037 485.95 247.112 485.966C246.784 485.975 246.464 485.983 246.145 485.983C245.094 485.992 244.051 486 243 486C223.294 486.015 203.66 483.634 184.529 478.912C184.941 465.349 185.353 441.528 185.748 424.022C185.832 420.6 185.908 417.413 185.992 414.597C186.151 408.576 186.32 404.238 186.479 402.783C186.338 403.041 186.228 403.315 186.151 403.599C185.373 407.224 184.842 410.899 184.562 414.597C184.268 417.413 183.974 420.6 183.679 424.022C182.115 442.21 180.484 466.938 178.803 477.424C168.793 474.691 158.971 471.312 149.399 467.308C144.354 465.206 139.398 462.939 134.533 460.506C135.458 454.452 136.425 447.667 137.417 440.629C138.19 435.172 138.989 429.563 139.805 424.022C141.066 415.463 142.361 407.071 143.673 399.68C145.59 388.884 147.557 380.207 149.508 376.221C151.358 372.437 153.208 368.704 154.999 365.131C155.621 363.878 156.243 362.642 156.849 361.439C156.991 361.153 157.134 360.876 157.277 360.599C158.564 358.068 159.808 355.646 160.994 353.376C162.011 351.434 162.978 349.601 163.895 347.91C166.114 343.807 167.998 340.536 169.394 338.468C175.229 329.616 183.916 323.027 194.013 319.793L194.265 319.726L194.442 319.801L211.637 314.521L214.151 313.747L215.841 313.226L221.794 308.694L225.031 306.23L228.067 303.918L234.003 299.403L270.756 301.665L277.911 318.893L293.938 324.754L294.215 324.628L294.459 324.527L294.711 324.594C304.806 327.831 313.493 334.42 319.331 343.269C320.121 344.455 321.08 346.019 322.164 347.91C323.089 349.516 324.098 351.349 325.191 353.376C326.747 356.26 328.445 359.514 330.245 363.037C330.64 363.811 331.043 364.601 331.447 365.4C332.195 366.88 332.955 368.39 333.726 369.932C335.517 373.505 337.366 377.239 339.216 381.031C340.822 384.318 342.445 391.079 344.043 399.68C345.363 406.827 346.674 415.253 347.944 424.022C349.609 435.39 347.835 449.003 349.34 459.463C349.432 460.128 349.533 460.775 349.626 461.423Z" fill="#3F3D56"/>
<path d="M243.517 285.651C267.124 285.651 286.262 266.513 286.262 242.906C286.262 219.299 267.124 200.161 243.517 200.161C219.91 200.161 200.772 219.299 200.772 242.906C200.772 266.513 219.91 285.651 243.517 285.651Z" fill="#A0616A"/>
<path d="M314.008 186.261C313.163 184.288 312.039 182.448 310.67 180.795C304.179 172.866 292.374 169.377 280.257 178.761C277.925 178.239 275.493 178.379 273.236 179.164C272.171 179.55 271.172 180.1 270.277 180.795C268.442 182.227 267.01 184.11 266.123 186.261C265.648 187.397 265.337 188.594 265.198 189.817C262.203 188.261 259.033 187.067 255.755 186.261C247.713 184.26 239.304 184.26 231.262 186.261C228.685 186.913 226.203 187.896 223.88 189.187C219.944 191.457 217.683 194.324 217.279 197.511C211.603 197.831 205.701 200.816 201.303 205.709C200.807 206.256 200.328 206.827 199.882 207.416C196.184 212.255 194.197 218.185 194.232 224.275V225.343H195.3C198.225 225.34 201.124 225.905 203.834 227.007C205.59 227.713 207.253 228.631 208.787 229.74C209.79 230.452 210.737 231.239 211.62 232.094C213.668 234.077 215.403 236.359 216.766 238.863C220.259 245.19 221.471 252.526 220.197 259.64C219.904 261.287 219.477 262.907 218.919 264.483C218.124 266.733 217.078 268.885 215.799 270.899C215.749 270.974 215.707 271.05 215.656 271.126C215.093 272.025 214.555 272.942 214.05 273.867C213.672 274.556 213.319 275.263 212.991 275.969C212.032 277.935 211.223 279.97 210.569 282.057C209.399 285.748 208.709 289.574 208.518 293.441C208.459 294.467 208.442 295.493 208.475 296.519C208.525 299.163 208.815 301.797 209.342 304.389C209.417 304.742 209.493 305.087 209.569 305.44L210.182 308.122L211.637 314.521L212.646 318.927L213.579 323.013L214.958 321.038C215.429 320.365 216.615 318.296 218.204 315.37C219.255 313.462 220.474 311.183 221.794 308.694C223.636 305.205 225.654 301.312 227.63 297.427C228.428 295.855 229.219 294.291 229.984 292.76C231.43 289.86 232.792 287.06 233.961 284.571C235.037 282.275 235.954 280.24 236.635 278.609C236.845 279.677 237.022 280.762 237.156 281.855C237.308 282.965 237.417 284.091 237.476 285.218C237.493 285.386 237.501 285.563 237.509 285.731L237.543 286.421L237.551 286.622L238.443 286.74C243.583 287.291 248.766 287.33 253.914 286.858H253.922C260.743 286.344 267.434 284.723 273.732 282.057C277.31 280.505 280.65 278.455 283.654 275.969C285.058 274.807 286.368 273.536 287.572 272.168C287.875 271.824 288.169 271.479 288.455 271.126C290.119 269.081 291.544 266.852 292.701 264.483C293.477 262.92 294.134 261.301 294.669 259.64C297.898 249.861 297.713 237.661 294.114 223.165C295.086 222.978 296.017 222.619 296.864 222.105C299.504 220.516 301.337 217.363 301.909 213.512L302.817 213.756C306.036 212.257 308.904 210.096 311.233 207.416C311.695 206.87 312.127 206.301 312.528 205.709C316.64 199.655 316.674 192.39 314.008 186.261Z" fill="#2F2E41"/>
<path opacity="0.2" d="M173.48 399.643L180.625 372.071L186.933 395.863L173.48 399.643Z" fill="black"/>
<path d="M363.6 381.678C361.044 416.892 363.693 432.397 349.584 461.431C336.746 467.714 323.375 472.841 309.627 476.751C308.198 477.154 306.766 477.547 305.331 477.928C287.247 482.713 268.67 485.39 249.97 485.907C248.995 485.933 248.037 485.95 247.112 485.966C246.784 485.975 246.464 485.983 246.145 485.983C245.094 485.992 244.051 486 243 486C223.294 486.015 203.66 483.634 184.529 478.912C182.612 478.441 180.703 477.945 178.803 477.423C168.793 474.691 158.971 471.312 149.399 467.308C144.354 465.206 139.398 462.939 134.533 460.506C133.431 459.951 132.33 459.396 131.245 458.824C125.671 449.02 122.501 437.097 122.433 422.77C126.293 398.083 355.074 360.388 363.6 381.678Z" fill="#69B99D"/>
<path opacity="0.2" d="M363.594 387.709C363.724 385.529 363.87 383.277 364.04 380.932C355.514 359.642 126.733 397.336 122.873 422.023C122.884 424.287 122.981 426.483 123.144 428.627C132.49 404.262 349.835 368.436 363.594 387.709Z" fill="black"/>
<path d="M137.136 287.692C137.191 286.929 137.083 286.164 136.818 285.447C136.553 284.73 136.138 284.078 135.6 283.535C135.062 282.992 134.414 282.57 133.699 282.299C132.985 282.027 132.221 281.912 131.458 281.961C131.174 281.972 130.891 282.007 130.613 282.066L97.1795 289.619C96.4324 289.8 95.7315 290.136 95.122 290.605C94.5126 291.073 94.0079 291.664 93.6407 292.339C93.1504 292.358 92.6635 292.429 92.1882 292.551C91.1478 292.786 90.1641 293.225 89.2931 293.841C88.4221 294.457 87.681 295.238 87.1121 296.141C86.5432 297.043 86.1575 298.049 85.9773 299.1C85.797 300.152 85.8256 301.229 86.0614 302.269C86.2972 303.309 86.7357 304.293 87.3517 305.164C87.9677 306.035 88.7492 306.776 89.6517 307.345C91.4742 308.494 93.6785 308.872 95.7797 308.396C96.9758 308.118 98.0946 307.577 99.0544 306.811L110.384 338.713C110.95 339.713 111.824 340.502 112.876 340.964C113.928 341.426 115.101 341.535 116.22 341.274L137.954 336.363C139.065 336.102 140.064 335.497 140.809 334.634C141.554 333.77 142.006 332.693 142.1 331.556L137.136 287.692ZM95.278 306.125C93.7774 306.463 92.2037 306.193 90.9021 305.373C89.6005 304.553 88.6772 303.25 88.3346 301.751C87.992 300.251 88.2581 298.676 89.0746 297.373C89.8911 296.069 91.1912 295.142 92.69 294.795C92.7956 294.769 92.9013 294.795 93.0069 294.769C92.9989 295.731 93.2449 296.679 93.72 297.515L97.866 304.751C97.1442 305.436 96.2495 305.911 95.278 306.125Z" fill="#2F2E41"/>
<path d="M131.458 281.961C131.775 286.186 124.539 291.045 114.847 292.973C105.947 294.795 97.9717 293.528 95.7269 290.2C96.1781 289.933 96.6681 289.737 97.1795 289.619L130.613 282.066C130.891 282.007 131.174 281.971 131.458 281.961Z" fill="#3F3D56"/>
<path d="M108.335 389.225L127.114 379.835L111.465 337.583L107.341 316.275C106.805 313.506 105.552 310.927 103.707 308.795C101.862 306.662 99.4901 305.051 96.8275 304.123C94.165 303.195 91.3055 302.981 88.5347 303.504C85.7639 304.027 83.1789 305.268 81.038 307.104C77.8654 309.823 75.8734 313.668 75.4824 317.829C75.0914 321.989 76.3319 326.138 78.9422 329.401L94.2513 348.537L108.335 389.225Z" fill="#A0616A"/>
<path d="M127.114 372.011L102.076 384.53L121.077 444.068C122.442 448.344 124.888 452.194 128.178 455.246C131.469 458.298 135.492 460.448 139.858 461.487C145.241 462.769 150.893 462.303 155.993 460.157C161.094 458.01 165.378 454.295 168.225 449.55L218.612 363.185C222.183 357.234 223.285 350.122 221.683 343.37C220.081 336.617 215.902 330.758 210.039 327.045C206.886 325.047 203.347 323.737 199.654 323.198C195.96 322.658 192.194 322.903 188.602 323.916C185.009 324.928 181.67 326.686 178.801 329.074C175.933 331.462 173.599 334.428 171.953 337.778L141.199 403.309L127.114 372.011Z" fill="#3F3D56"/>
<path d="M119.37 318.205C119.323 318.205 119.277 318.197 119.233 318.182L113.767 316.3C113.701 316.277 113.641 316.239 113.594 316.187C113.547 316.136 113.513 316.074 113.496 316.006C113.479 315.938 113.479 315.868 113.496 315.8C113.513 315.732 113.547 315.67 113.594 315.619L117.66 311.192C117.697 311.151 117.742 311.118 117.792 311.094C117.842 311.071 117.896 311.057 117.952 311.055C118.007 311.052 118.062 311.061 118.114 311.08C118.166 311.099 118.214 311.128 118.255 311.165C118.295 311.202 118.328 311.248 118.352 311.298C118.375 311.348 118.388 311.402 118.39 311.458C118.393 311.513 118.384 311.568 118.365 311.62C118.346 311.672 118.316 311.719 118.279 311.76L114.647 315.714L119.507 317.387C119.601 317.42 119.68 317.484 119.731 317.57C119.782 317.655 119.801 317.756 119.785 317.854C119.768 317.952 119.718 318.041 119.642 318.106C119.566 318.17 119.469 318.205 119.37 318.205Z" fill="#6C63FF"/>
<path d="M126.863 316.671C126.779 316.671 126.698 316.646 126.628 316.599C126.559 316.553 126.505 316.486 126.473 316.408C126.442 316.331 126.435 316.246 126.452 316.164C126.469 316.082 126.511 316.007 126.571 315.949L130.266 312.376L125.302 310.33C125.251 310.31 125.205 310.279 125.165 310.24C125.126 310.201 125.095 310.155 125.074 310.104C125.053 310.053 125.042 309.998 125.041 309.943C125.041 309.887 125.052 309.833 125.073 309.782C125.094 309.731 125.125 309.684 125.164 309.645C125.203 309.606 125.249 309.575 125.301 309.554C125.352 309.533 125.406 309.522 125.461 309.522C125.517 309.522 125.571 309.533 125.622 309.554L131.18 311.844C131.244 311.87 131.301 311.913 131.345 311.967C131.39 312.021 131.42 312.085 131.433 312.153C131.446 312.222 131.442 312.293 131.421 312.359C131.4 312.426 131.362 312.486 131.312 312.534L127.155 316.553C127.077 316.629 126.972 316.671 126.863 316.671Z" fill="#6C63FF"/>
<path d="M120.518 320.777C120.476 320.777 120.434 320.771 120.394 320.758C120.341 320.742 120.292 320.715 120.249 320.68C120.207 320.645 120.172 320.602 120.146 320.553C120.12 320.504 120.104 320.451 120.099 320.396C120.094 320.341 120.099 320.285 120.116 320.232L123.996 307.62C124.029 307.514 124.103 307.425 124.201 307.373C124.3 307.321 124.415 307.311 124.521 307.343C124.628 307.376 124.717 307.45 124.769 307.548C124.821 307.646 124.832 307.761 124.8 307.868L120.919 320.48C120.893 320.566 120.84 320.641 120.767 320.695C120.695 320.748 120.607 320.777 120.518 320.777Z" fill="#6C63FF"/>
</g>
<defs>
<clipPath id="clip0_4705_108">
<rect width="486" height="486" fill="white"/>
</clipPath>
</defs>
</svg>
