<svg width="156" height="22" viewBox="0 0 156 22" fill="none" xmlns="http://www.w3.org/2000/svg">
<path d="M1.39062 21V5H11.9844V7.78906H4.77344V11.6016H11.2813V14.3906H4.77344V21H1.39062ZM14.0039 21V9H17.2305V11.0937H17.3555C17.5742 10.349 17.9414 9.78646 18.457 9.40625C18.9727 9.02083 19.5664 8.82812 20.2383 8.82812C20.4049 8.82812 20.5846 8.83854 20.7773 8.85937C20.9701 8.88021 21.1393 8.90885 21.2852 8.94531V11.8984C21.1289 11.8516 20.9128 11.8099 20.6367 11.7734C20.3607 11.737 20.1081 11.7188 19.8789 11.7188C19.3893 11.7188 18.9518 11.8255 18.5664 12.0391C18.1862 12.2474 17.8841 12.5391 17.6602 12.9141C17.4414 13.2891 17.332 13.7214 17.332 14.2109V21H14.0039ZM27.8691 21.2344C26.6556 21.2344 25.6061 20.9766 24.7207 20.4609C23.8405 19.9401 23.1608 19.2161 22.6816 18.2891C22.2025 17.3568 21.9629 16.276 21.9629 15.0469C21.9629 13.8073 22.2025 12.724 22.6816 11.7969C23.1608 10.8646 23.8405 10.1406 24.7207 9.625C25.6061 9.10417 26.6556 8.84375 27.8691 8.84375C29.0827 8.84375 30.1296 9.10417 31.0098 9.625C31.8952 10.1406 32.5775 10.8646 33.0566 11.7969C33.5358 12.724 33.7754 13.8073 33.7754 15.0469C33.7754 16.276 33.5358 17.3568 33.0566 18.2891C32.5775 19.2161 31.8952 19.9401 31.0098 20.4609C30.1296 20.9766 29.0827 21.2344 27.8691 21.2344ZM27.8848 18.6562C28.4368 18.6562 28.8978 18.5 29.2676 18.1875C29.6374 17.8698 29.916 17.4375 30.1035 16.8906C30.2962 16.3437 30.3926 15.7214 30.3926 15.0234C30.3926 14.3255 30.2962 13.7031 30.1035 13.1562C29.916 12.6094 29.6374 12.1771 29.2676 11.8594C28.8978 11.5417 28.4368 11.3828 27.8848 11.3828C27.3275 11.3828 26.8587 11.5417 26.4785 11.8594C26.1035 12.1771 25.8197 12.6094 25.627 13.1562C25.4395 13.7031 25.3457 14.3255 25.3457 15.0234C25.3457 15.7214 25.4395 16.3437 25.627 16.8906C25.8197 17.4375 26.1035 17.8698 26.4785 18.1875C26.8587 18.5 27.3275 18.6562 27.8848 18.6562ZM39.2676 14.0625V21H35.9395V9H39.1113V11.1172H39.252C39.5176 10.4193 39.9629 9.86719 40.5879 9.46094C41.2129 9.04948 41.9707 8.84375 42.8613 8.84375C43.6947 8.84375 44.4212 9.02604 45.041 9.39062C45.6608 9.75521 46.1426 10.276 46.4863 10.9531C46.8301 11.625 47.002 12.4271 47.002 13.3594V21H43.6738V13.9531C43.679 13.2187 43.4915 12.6458 43.1113 12.2344C42.7311 11.8177 42.2077 11.6094 41.541 11.6094C41.0931 11.6094 40.6973 11.7057 40.3535 11.8984C40.015 12.0911 39.7493 12.3724 39.5566 12.7422C39.3691 13.1068 39.2728 13.5469 39.2676 14.0625ZM56.0078 9V11.5H48.7813V9H56.0078ZM50.4219 6.125H53.75V17.3125C53.75 17.6198 53.7969 17.8594 53.8906 18.0312C53.9844 18.1979 54.1146 18.3151 54.2813 18.3828C54.4531 18.4505 54.651 18.4844 54.875 18.4844C55.0313 18.4844 55.1875 18.4714 55.3438 18.4453C55.5 18.4141 55.6198 18.3906 55.7031 18.375L56.2266 20.8516C56.0599 20.9036 55.8255 20.9635 55.5234 21.0313C55.2214 21.1042 54.8542 21.1484 54.4219 21.1641C53.6198 21.1953 52.9167 21.0885 52.3125 20.8437C51.7135 20.599 51.2474 20.2187 50.9141 19.7031C50.5807 19.1875 50.4167 18.5365 50.4219 17.75V6.125ZM60.1211 21.2031C59.6055 21.2031 59.1628 21.0208 58.793 20.6562C58.4284 20.2865 58.2461 19.8437 58.2461 19.3281C58.2461 18.8177 58.4284 18.3802 58.793 18.0156C59.1628 17.651 59.6055 17.4687 60.1211 17.4687C60.6211 17.4687 61.0586 17.651 61.4336 18.0156C61.8086 18.3802 61.9961 18.8177 61.9961 19.3281C61.9961 19.6719 61.9076 19.987 61.7305 20.2734C61.5586 20.5547 61.332 20.7812 61.0508 20.9531C60.7695 21.1198 60.4596 21.2031 60.1211 21.2031ZM64.791 21V5H75.5723V7.78906H68.1738V11.6016H75.0176V14.3906H68.1738V18.2109H75.6035V21H64.791ZM81.5273 14.0625V21H78.1992V9H81.3711V11.1172H81.5117C81.7773 10.4193 82.2227 9.86719 82.8477 9.46094C83.4727 9.04948 84.2305 8.84375 85.1211 8.84375C85.9544 8.84375 86.681 9.02604 87.3008 9.39062C87.9206 9.75521 88.4023 10.276 88.7461 10.9531C89.0898 11.625 89.2617 12.4271 89.2617 13.3594V21H85.9336V13.9531C85.9388 13.2187 85.7513 12.6458 85.3711 12.2344C84.9909 11.8177 84.4674 11.6094 83.8008 11.6094C83.3529 11.6094 82.957 11.7057 82.6133 11.8984C82.2747 12.0911 82.0091 12.3724 81.8164 12.7422C81.6289 13.1068 81.5326 13.5469 81.5273 14.0625ZM96.3066 21.1953C95.3952 21.1953 94.5697 20.9609 93.8301 20.4922C93.0957 20.0182 92.5124 19.3229 92.0801 18.4062C91.653 17.4844 91.4395 16.3542 91.4395 15.0156C91.4395 13.6406 91.6608 12.4974 92.1035 11.5859C92.5462 10.6693 93.1348 9.98437 93.8691 9.53125C94.6087 9.07292 95.4186 8.84375 96.2988 8.84375C96.9707 8.84375 97.5306 8.95833 97.9785 9.1875C98.4316 9.41146 98.7962 9.69271 99.0723 10.0312C99.3535 10.3646 99.5671 10.6927 99.7129 11.0156H99.8145V5H103.135V21H99.8535V19.0781H99.7129C99.5566 19.4115 99.3353 19.7422 99.0488 20.0703C98.7676 20.3932 98.4004 20.6615 97.9473 20.875C97.4993 21.0885 96.9525 21.1953 96.3066 21.1953ZM97.3613 18.5469C97.8978 18.5469 98.3509 18.401 98.7207 18.1094C99.0957 17.8125 99.3822 17.3984 99.5801 16.8672C99.7832 16.3359 99.8848 15.7135 99.8848 15C99.8848 14.2865 99.7858 13.6667 99.5879 13.1406C99.39 12.6146 99.1035 12.2083 98.7285 11.9219C98.3535 11.6354 97.8978 11.4922 97.3613 11.4922C96.8145 11.4922 96.3535 11.6406 95.9785 11.9375C95.6035 12.2344 95.3197 12.6458 95.127 13.1719C94.9342 13.6979 94.8379 14.3073 94.8379 15C94.8379 15.6979 94.9342 16.3151 95.127 16.8516C95.3249 17.3828 95.6087 17.7995 95.9785 18.1016C96.3535 18.3984 96.8145 18.5469 97.3613 18.5469Z" fill="#89C5CC"/>
</svg>
