<svg width="108" height="64" viewBox="0 0 108 64" fill="none" xmlns="http://www.w3.org/2000/svg">
<g filter="url(#filter0_d_4706_8)">
<path d="M15.5913 13.7303V7.74886C15.5913 6.78257 14.8087 6 13.8424 6H7.75603C6.79929 6 6.02148 6.77542 6.02148 7.73216C6.02148 7.73693 6.02148 7.7417 6.02148 7.74886C6.01432 20.301 6.00716 32.8532 6 45.4054C6 49.2371 6 49.2634 9.54782 49.2395C11.0032 49.23 12.4586 49.1656 13.914 49.1059C14.8517 49.0677 15.5913 48.2971 15.5913 47.3571V41.1991C15.5913 40.8531 15.4839 40.5191 15.2954 40.228C13.2913 37.1478 12.0435 33.4354 11.5758 29.1455C10.9913 23.7868 12.2463 18.8791 15.2501 14.7538C15.4672 14.4556 15.5913 14.1001 15.5913 13.7303Z" fill="white"/>
<path fill-rule="evenodd" clip-rule="evenodd" d="M89.6502 15.4744C89.6507 15.4752 89.6513 15.476 89.6518 15.4768L89.6371 15.4744H89.6502ZM89.6502 15.4744C87.2309 11.8442 83.7171 9.13708 79.1443 7.47209C71.0204 4.50881 61.8943 7.32416 56.4449 14.2862C54.9617 16.1809 53.5648 18.1911 52.1733 20.1938C51.4585 21.2225 50.7451 22.2492 50.0221 23.2572C49.62 23.8225 49.2188 24.3889 48.8177 24.9553C46.539 28.1727 44.2598 31.3909 41.7908 34.4279C38.6032 38.3456 34.4709 39.7484 29.7754 37.8898C26.0964 36.4344 23.9038 33.4211 23.219 29.3006C22.5223 25.1062 23.7797 21.5846 27.0531 19.1105C30.7918 16.2832 34.7572 16.1424 38.7535 18.5045C39.7246 19.0795 40.3139 19.0055 40.9844 18.0106C41.9216 16.618 42.9124 15.2664 43.9032 13.9149C44.3451 13.3122 44.787 12.7095 45.2241 12.1031C46.0496 10.9579 46.0162 10.6787 44.8996 9.97012C36.7542 4.79273 26.743 4.55653 18.6691 12.5684C14.1765 17.0276 12.2057 22.7418 12.9 29.1026C13.9188 38.4481 18.7598 44.9831 27.1366 48.037C35.2606 51.0003 44.3866 48.185 49.836 41.2229C51.3235 39.3229 52.7073 37.3307 54.0914 35.338C54.7965 34.3229 55.5017 33.3077 56.2207 32.3045L56.2612 32.2496C56.6708 31.6741 57.0794 31.0976 57.4879 30.5209C59.7592 27.3155 62.0316 24.1084 64.4926 21.0812C67.6801 17.1636 71.8125 15.7607 76.5079 17.6193C79.8915 18.9575 82.0156 21.6193 82.8684 25.2442L82.8687 25.2685C82.9403 25.5763 83.0071 25.8888 83.0596 26.2109C83.7563 30.4053 82.5013 33.9269 79.2255 36.401C75.4868 39.2283 71.5214 39.3691 67.525 37.0071C66.554 36.4321 65.9647 36.506 65.2942 37.5009C64.357 38.8936 63.3662 40.2451 62.3753 41.5966C61.9335 42.1993 61.4916 42.8021 61.0545 43.4084C60.229 44.5536 60.2624 44.8328 61.379 45.5414C69.5244 50.7188 79.5356 50.955 87.6095 42.9432C92.1021 38.4839 94.0729 32.7697 93.3786 26.4089L93.381 26.4065C92.9181 22.162 91.6655 18.4997 89.6518 15.4768L89.6566 15.4744H89.6502Z" fill="white"/>
</g>
<defs>
<filter id="filter0_d_4706_8" x="0" y="0" width="107.515" height="63.2425" filterUnits="userSpaceOnUse" color-interpolation-filters="sRGB">
<feFlood flood-opacity="0" result="BackgroundImageFix"/>
<feColorMatrix in="SourceAlpha" type="matrix" values="0 0 0 0 0 0 0 0 0 0 0 0 0 0 0 0 0 0 127 0" result="hardAlpha"/>
<feOffset dx="4" dy="4"/>
<feGaussianBlur stdDeviation="5"/>
<feComposite in2="hardAlpha" operator="out"/>
<feColorMatrix type="matrix" values="0 0 0 0 0 0 0 0 0 0 0 0 0 0 0 0 0 0 0.25 0"/>
<feBlend mode="normal" in2="BackgroundImageFix" result="effect1_dropShadow_4706_8"/>
<feBlend mode="normal" in="SourceGraphic" in2="effect1_dropShadow_4706_8" result="shape"/>
</filter>
</defs>
</svg>
